<svg xmlns="http://www.w3.org/2000/svg" viewBox="0 0 1440 320">
  <path
    fill="#2f002f"
    fillOpacity="1"
    d="M0,96L26.7,85.3C53.3,75,107,53,160,74.7C213.3,96,267,160,320,165.3C373.3,171,427,117,480,122.7C533.3,128,587,192,640,218.7C693.3,245,747,235,800,197.3C853.3,160,907,96,960,58.7C1013.3,21,1067,11,1120,37.3C1173.3,64,1227,128,1280,154.7C1333.3,181,1387,171,1413,165.3L1440,160L1440,320L1413.3,320C1386.7,320,1333,320,1280,320C1226.7,320,1173,320,1120,320C1066.7,320,1013,320,960,320C906.7,320,853,320,800,320C746.7,320,693,320,640,320C586.7,320,533,320,480,320C426.7,320,373,320,320,320C266.7,320,213,320,160,320C106.7,320,53,320,27,320L0,320Z"
  ></path>
</svg>